<?xml version="1.0" encoding="UTF-8" standalone="no"?>
<svg
   width="32"
   height="32"
   viewBox="0 0 32 32"
   fill="none"
   version="1.1"
   id="svg12"
   xmlns="http://www.w3.org/2000/svg"
   xmlns:svg="http://www.w3.org/2000/svg">
  <defs
     id="defs12" />
  <g
     id="g14">
    <g
       id="g13"
       transform="translate(-2.7794516e-6,-0.9999634)"
       style="fill:#1cc0e3;fill-opacity:1">
      <g
         id="g12"
         transform="matrix(0.45714249,0,0,0.45714249,1.5518817e-6,7.8570969)"
         style="fill:#1cc0e3;fill-opacity:1">
        <path
           d="m 37.2551,1.61586 c 0.9252,-0.962476 2.1817,-1.503189 3.4901,-1.503189 5.8866,0 11.4341,3e-6 16.8972,1.4e-5 10.9878,2.3e-5 16.49,13.820215 8.7205,21.902915 L 49.4389,39.6217 C 48.662,40.43 47.3335,39.8575 47.3335,38.7144 V 23.2076 l 1.9558,-2.0347 c 1.5539,-1.6165 0.4534,-4.3806 -1.7442,-4.3806 H 22.6667 Z"
           fill="#3A04FF"
           id="path1"
           style="fill:#1cc0e3;fill-opacity:1" />
        <path
           d="m 32.7449,38.3842 c -0.9251,0.9625 -2.1816,1.5032 -3.49,1.5032 -5.8866,0 -11.4341,0 -16.8972,0 C 1.36983,39.8873 -4.13236,26.0672 3.63721,17.9844 L 20.5612,0.378369 c 0.7769,-0.808277 2.1054,-0.235822 2.1054,0.907251 l 10e-5,15.50668 -1.9559,2.0348 c -1.5539,1.6166 -0.4534,4.3806 1.7442,4.3806 l 24.8785,-10e-5 z"
           fill="#3A04FF"
           id="path2"
           style="fill:#1cc0e3;fill-opacity:1" />
      </g>
    </g>
  </g>
</svg>
