<?xml version="1.0" encoding="UTF-8" standalone="no"?>
<svg
   width="236.55188"
   height="40.000072"
   viewBox="0 0 236.55188 40.000072"
   fill="none"
   version="1.1"
   id="svg12"
   xmlns="http://www.w3.org/2000/svg"
   xmlns:svg="http://www.w3.org/2000/svg">
  <defs
     id="defs12" />
  <g
     id="g13"
     transform="translate(-2.7794516e-6,-0.9999634)"
     style="fill:#ffffff;fill-opacity:1">
    <g
       id="g12"
       transform="translate(0,0.99996356)"
       style="fill:#ffffff;fill-opacity:1">
      <path
         d="m 37.2551,1.61586 c 0.9252,-0.962476 2.1817,-1.503189 3.4901,-1.503189 5.8866,0 11.4341,3e-6 16.8972,1.4e-5 10.9878,2.3e-5 16.49,13.820215 8.7205,21.902915 L 49.4389,39.6217 C 48.662,40.43 47.3335,39.8575 47.3335,38.7144 V 23.2076 l 1.9558,-2.0347 c 1.5539,-1.6165 0.4534,-4.3806 -1.7442,-4.3806 H 22.6667 Z"
         fill="#3A04FF"
         id="path1"
         style="fill:#ffffff;fill-opacity:1" />
      <path
         d="m 32.7449,38.3842 c -0.9251,0.9625 -2.1816,1.5032 -3.49,1.5032 -5.8866,0 -11.4341,0 -16.8972,0 C 1.36983,39.8873 -4.13236,26.0672 3.63721,17.9844 L 20.5612,0.378369 c 0.7769,-0.808277 2.1054,-0.235822 2.1054,0.907251 l 10e-5,15.50668 -1.9559,2.0348 c -1.5539,1.6166 -0.4534,4.3806 1.7442,4.3806 l 24.8785,-10e-5 z"
         fill="#3A04FF"
         id="path2"
         style="fill:#ffffff;fill-opacity:1" />
    </g>
    <path
       style="font-weight:bold;font-family:Ubuntu;-inkscape-font-specification:'Ubuntu Bold';fill:#ffffff;stroke-width:4.72143;fill-opacity:1"
       d="M 75.46154,40.263457 V 1.0000002 h 7.76204 V 33.577904 h 17.62041 v 6.685553 z M 119.03089,41 q -4.24928,0 -7.5354,-1.926346 -3.22947,-1.983001 -5.04249,-5.49575 -1.81304,-3.512747 -1.81304,-8.215297 0,-4.702549 1.86969,-8.158641 1.86968,-3.45609 5.09916,-5.439094 3.28612,-1.9830027 7.42208,-1.9830027 4.19265,0 7.4221,1.9830027 3.28612,1.926347 5.09916,5.439094 1.81302,3.456092 1.81302,8.158641 0,4.70255 -1.81302,8.215297 -1.75637,3.512749 -4.98585,5.49575 Q 123.3935,41 119.03089,41 Z m 0,-6.345609 q 2.15298,0 3.62608,-1.133144 1.52975,-1.133144 2.32294,-3.229463 0.84987,-2.096316 0.84987,-4.929177 0,-2.832862 -0.84987,-4.872522 -0.79319,-2.03966 -2.32294,-3.172803 -1.4731,-1.133146 -3.62608,-1.133146 -2.15296,0 -3.68271,1.133146 -1.52974,1.133143 -2.32294,3.172803 -0.79322,2.03966 -0.79322,4.872522 0,2.832861 0.79322,4.929177 0.7932,2.03966 2.32294,3.229463 1.52975,1.133144 3.68271,1.133144 z m 21.24641,5.609066 V 12.104816 q 2.03967,-0.736544 4.98585,-1.41643 3.00282,-0.7365438 6.7422,-0.7365438 0.96318,0 2.26629,0.1699828 1.30312,0.113313 2.49293,0.339943 1.24645,0.226627 2.03964,0.566573 l -1.24645,6.11898 q -1.01982,-0.283287 -2.54956,-0.566573 -1.47311,-0.283285 -3.34279,-0.283285 -1.13314,0 -2.32294,0.169959 -1.13314,0.169982 -1.69971,0.3966 V 40.263457 Z M 177.0619,41 q -5.32579,0 -8.72522,-1.983003 -3.39943,-2.03966 -5.09914,-5.552407 -1.64306,-3.512749 -1.64306,-7.875355 0,-5.26912 2.03965,-8.725213 2.03967,-3.512747 5.21247,-5.26912 3.17281,-1.8130327 6.7422,-1.8130327 4.07932,0 7.02549,1.6997167 3.00285,1.699717 4.58924,5.042493 1.64306,3.342776 1.64306,8.385269 0,0.62323 -0.0566,1.41643 -0.0566,0.793203 -0.11339,1.416433 h -19.43344 q 0.22653,3.22946 2.43628,5.042493 2.26627,1.81303 6.28894,1.81303 2.49293,0 4.58924,-0.453257 2.15296,-0.453259 3.39943,-1.01983 l 1.07649,6.062323 q -1.24647,0.62323 -4.07933,1.1898 Q 180.17801,41 177.06187,41 Z m -7.81871,-18.470255 h 12.40795 q -0.0566,-1.756373 -0.73655,-3.22946 -0.62324,-1.529747 -1.92636,-2.436263 -1.24645,-0.906514 -3.34276,-0.906514 -2.03967,0 -3.39943,0.963171 -1.30312,0.906516 -2.03967,2.436262 -0.73655,1.473087 -0.96318,3.172804 z m 26.51549,17.733712 V 11.594902 q 2.09631,-0.566573 5.26912,-1.133146 3.22947,-0.5665707 6.68555,-0.5665707 3.11616,0 5.09916,0.8498577 2.03965,0.7932 3.34277,2.039659 1.07649,-0.7932 2.49292,-1.41643 1.41643,-0.623229 3.05949,-1.01983 1.64306,-0.4532567 3.22948,-0.4532567 4.70253,0 7.19545,1.7563737 2.54957,1.699716 3.4561,4.759206 0.96316,3.05949 0.96316,7.13881 v 16.713882 h -7.36544 V 24.569405 q 0,-2.946176 -0.5099,-4.759207 -0.45328,-1.869689 -1.58641,-2.719546 -1.13314,-0.84986 -3.11614,-0.84986 -0.84986,0 -1.81304,0.226628 -0.90651,0.226627 -1.69971,0.623229 -0.79322,0.339944 -1.35978,0.679887 0.45325,1.359773 0.56656,2.889519 0.16996,1.529744 0.16996,3.229461 v 16.373938 h -7.36543 V 24.569402 q 0,-2.946176 -0.50993,-4.759206 -0.45325,-1.869689 -1.58639,-2.719547 -1.13316,-0.849859 -3.1728,-0.849859 -0.79322,0 -1.58642,0.05667 -0.73652,0.05667 -1.35976,0.169958 -0.62324,0.05667 -1.13314,0.169983 v 23.62606 z"
       id="text12"
       aria-label="Lorem" />
  </g>
</svg>
